<svg viewBox="0 0 40 40" fill="none" xmlns="http://www.w3.org/2000/svg">
<path d="M17.1417 18.1923C17.9125 18.1923 18.5374 17.5674 18.5374 16.7966C18.5374 16.0258 17.9125 15.401 17.1417 15.401C16.3709 15.401 15.7461 16.0258 15.7461 16.7966C15.7461 17.5674 16.3709 18.1923 17.1417 18.1923Z" fill="#9FB2BB"/>
<path d="M22.5011 18.1923C23.2719 18.1923 23.8967 17.5674 23.8967 16.7966C23.8967 16.0258 23.2719 15.401 22.5011 15.401C21.7303 15.401 21.1055 16.0258 21.1055 16.7966C21.1055 17.5674 21.7303 18.1923 22.5011 18.1923Z" fill="#9FB2BB"/>
<path d="M22.006 20.5348C21.6292 20.9137 21.181 21.2141 20.6872 21.4186C20.1935 21.6231 19.6641 21.7275 19.1296 21.726H18.3125V23.1216H19.1296C19.8474 23.1237 20.5584 22.9834 21.2216 22.7087C21.8847 22.434 22.4867 22.0305 22.9928 21.5215L22.006 20.5348Z" fill="#9FB2BB"/>
<path fill-rule="evenodd" clip-rule="evenodd" d="M26.8622 27.4082L28.1132 27.4081C31.4777 27.4081 34.2149 30.1454 34.2149 33.5099L34.2151 40H32.9744L32.9743 33.5098C32.9743 30.8294 30.7937 28.6488 28.1134 28.6488L27.1629 28.6489L26.5954 30.0675L28.4024 34.0207C28.6963 34.6637 28.4313 35.415 27.7989 35.7312L26.8756 36.1928C26.864 36.1986 26.8397 36.2108 26.8397 36.2508C26.8397 36.2908 26.864 36.303 26.8756 36.3088L27.5404 36.6411C27.9147 36.8284 28.1782 37.1867 28.2452 37.5998C28.3123 38.013 28.1756 38.4363 27.8797 38.7323L26.612 40H24.8571L27.0022 37.8549C27.0081 37.8491 27.0257 37.8314 27.0204 37.7987C27.015 37.7661 26.9929 37.7549 26.9855 37.7511L26.9854 37.7511L26.3207 37.4188C25.8754 37.1961 25.5988 36.7485 25.5988 36.2509C25.5988 35.7532 25.8753 35.3056 26.3205 35.0831L27.2438 34.6215C27.2752 34.6059 27.2883 34.5686 27.2737 34.5367L25.9584 31.6594L24.8913 34.327C24.7446 34.694 24.4439 34.9717 24.0665 35.0889C23.9386 35.1286 23.8077 35.1481 23.6777 35.1481C23.4999 35.1481 23.3239 35.1108 23.1597 35.0392L22.722 40H21.4765L21.9811 34.2792L19.8906 32.8857L17.8015 34.2783L18.3275 40H17.0814L16.6252 35.0376C16.4599 35.1103 16.2826 35.1481 16.1035 35.1481C15.9734 35.1481 15.8425 35.1286 15.7147 35.0889C15.3373 34.9717 15.0366 34.694 14.8898 34.3271L13.8228 31.6596L12.5077 34.5367C12.4931 34.5685 12.5062 34.6059 12.5377 34.6215L13.4608 35.0831C13.906 35.3056 14.1826 35.7532 14.1826 36.2509C14.1826 36.7485 13.906 37.1961 13.4608 37.4187L12.796 37.751L12.7958 37.7511C12.7884 37.7549 12.7664 37.7662 12.7611 37.7986C12.7557 37.8314 12.7734 37.8491 12.7792 37.8549L14.9243 40H13.1695L11.9018 38.7323C11.6058 38.4363 11.4692 38.0129 11.5363 37.5998C11.6034 37.1868 11.8668 36.8284 12.2411 36.6413L12.906 36.309C12.9175 36.3032 12.9418 36.291 12.9418 36.251C12.9418 36.2109 12.9176 36.1988 12.906 36.193L11.9827 35.7314C11.3504 35.4151 11.0854 34.6638 11.3792 34.0209L13.1861 30.0679L12.6186 28.6491L11.6682 28.6492C8.98781 28.6492 6.80721 30.8298 6.80721 33.5101V40H5.56641V33.51C5.56641 30.1455 8.30363 27.4083 11.6681 27.4083L12.9191 27.4081L15.8442 26.2379V24.7148C13.9481 23.4886 12.6403 21.4277 12.4444 19.0561H11.6683C10.5705 19.0561 9.67745 18.1631 9.67745 17.0653V16.8913C9.67745 15.7936 10.5705 14.9005 11.6683 14.9005H12.4183V10.8984C12.4183 8.80437 13.6135 6.98542 15.3568 6.08427C15.2265 5.64783 15.1591 5.19527 15.1591 4.73162C15.1591 3.97547 15.342 3.22321 15.6879 2.55615C15.8457 2.2519 16.2201 2.1332 16.5243 2.29095C16.8286 2.44869 16.9473 2.82309 16.7895 3.12725C16.5311 3.62581 16.4 4.16548 16.4 4.73162C16.4 5.04356 16.4404 5.34871 16.5201 5.64386C16.9413 5.53839 17.3817 5.48156 17.8352 5.48156H21.9464C22.3999 5.48156 22.8403 5.53839 23.2615 5.64386C23.3412 5.34871 23.3816 5.04356 23.3816 4.73162C23.3816 2.80679 21.8156 1.24081 19.8908 1.24081C19.3231 1.24081 18.7819 1.37258 18.2823 1.63241C17.9784 1.79057 17.6037 1.67236 17.4456 1.36836C17.2875 1.06437 17.4057 0.689807 17.7097 0.531728C18.3783 0.183888 19.1326 0 19.8907 0C22.4997 0 24.6223 2.12261 24.6223 4.73162C24.6223 5.19527 24.5549 5.64791 24.4246 6.08427C26.1679 6.98542 27.3631 8.80445 27.3631 10.8984V14.9007H28.1131C29.2108 14.9007 30.1039 15.7937 30.1039 16.8914V17.0654C30.1039 18.1631 29.2109 19.0563 28.1131 19.0563H27.3371C27.1413 21.4279 25.8334 23.4888 23.9372 24.715V26.238L26.8622 27.4082ZM23.6985 33.9039C23.728 33.8948 23.7366 33.8732 23.7395 33.8661L25.9363 28.3742L23.568 27.4266L20.7361 31.9579L22.9719 33.4483L22.9763 33.4512L23.6433 33.8959C23.6497 33.9002 23.6691 33.9132 23.6985 33.9039ZM28.8631 17.0654V16.8914C28.8631 16.4779 28.5267 16.1415 28.1132 16.1414H27.3632L27.3631 17.8155H28.1131C28.5267 17.8155 28.8631 17.479 28.8631 17.0654ZM26.1224 10.8984C26.1224 8.59575 24.249 6.72245 21.9464 6.72245H17.8352C15.5325 6.72245 13.6591 8.59575 13.6592 10.8984V13.0891C14.2381 12.6172 14.9762 12.3336 15.7796 12.3336H19.8908C21.8156 12.3336 23.3816 10.7677 23.3816 8.84283C23.3816 8.50012 23.6594 8.22243 24.002 8.22243C24.3446 8.22243 24.6224 8.50012 24.6224 8.84283V10.2133C24.6224 11.1666 25.255 11.9749 26.1224 12.2408V10.8984ZM10.9183 16.8913V17.0653C10.9183 17.4789 11.2548 17.8153 11.6684 17.8154H12.4185L12.4184 16.1413H11.6683C11.2547 16.1413 10.9183 16.4777 10.9183 16.8913ZM13.6592 15.6928V18.4358C13.6592 21.8719 16.4547 24.6674 19.8908 24.6674C23.3268 24.6674 26.1223 21.872 26.1223 18.4359L26.1224 13.5161C25.0496 13.315 24.155 12.6033 23.7017 11.6432C22.8395 12.8134 21.4526 13.5745 19.8908 13.5745H15.7796C14.6111 13.5745 13.6603 14.5245 13.6592 15.6928ZM22.6964 25.3611C21.8296 25.7134 20.8826 25.9082 19.8908 25.9082C18.8989 25.9082 17.9518 25.7134 17.085 25.3611V26.48L19.8907 30.9694L22.6964 26.48V25.3611ZM19.0453 31.9579L16.2135 27.4267L13.845 28.3742L16.0419 33.8662C16.0448 33.8733 16.0534 33.8948 16.0828 33.9039C16.1121 33.9132 16.1314 33.9004 16.1379 33.8961L16.138 33.896L16.8037 33.4522L16.8076 33.4496L19.0453 31.9579Z" fill="#9FB2BB"/>
</svg>