<svg viewBox="0 0 40 40" fill="none" xmlns="http://www.w3.org/2000/svg">
<path fill-rule="evenodd" clip-rule="evenodd" d="M30.0642 6.48691H14.0859C11.5454 6.48691 9.48594 8.5464 9.48594 11.0869V33C9.48594 35.5405 11.5454 37.6 14.0859 37.6H30.0642C32.6047 37.6 34.6642 35.5405 34.6642 33V11.0869C34.6642 8.5464 32.6047 6.48691 30.0642 6.48691ZM14.0859 5.08691C10.7722 5.08691 8.08594 7.7732 8.08594 11.0869V33C8.08594 36.3137 10.7722 39 14.0859 39H30.0642C33.3779 39 36.0642 36.3137 36.0642 33V11.0869C36.0642 7.77321 33.3779 5.08691 30.0642 5.08691H14.0859Z" fill="#9FB2BB"/>
<path d="M5.54297 8.54346C5.54297 5.22975 8.22926 2.54346 11.543 2.54346H27.5212C30.8349 2.54346 33.5212 5.22975 33.5212 8.54346V30.4565C33.5212 33.7702 30.8349 36.4565 27.5212 36.4565H11.543C8.22926 36.4565 5.54297 33.7702 5.54297 30.4565V8.54346Z" fill="white"/>
<path fill-rule="evenodd" clip-rule="evenodd" d="M27.5212 3.94346H11.543C9.00246 3.94346 6.94297 6.00295 6.94297 8.54346V30.4565C6.94297 32.997 9.00246 35.0565 11.543 35.0565H27.5212C30.0617 35.0565 32.1212 32.997 32.1212 30.4565V8.54346C32.1212 6.00295 30.0617 3.94346 27.5212 3.94346ZM11.543 2.54346C8.22926 2.54346 5.54297 5.22975 5.54297 8.54346V30.4565C5.54297 33.7702 8.22926 36.4565 11.543 36.4565H27.5212C30.8349 36.4565 33.5212 33.7702 33.5212 30.4565V8.54346C33.5212 5.22975 30.8349 2.54346 27.5212 2.54346H11.543Z" fill="#9FB2BB"/>
<path d="M6.81522 3.81522L9.99457 0H16.9891H24.9783C28.292 0 30.9783 2.68629 30.9783 6V27.913C30.9783 31.2268 28.292 33.913 24.9783 33.913H9C5.68629 33.913 3 31.2268 3 27.913V16.9565V8.47826L6.81522 3.81522Z" fill="white"/>
<path d="M7.73047 16.9565H8.57829V17.8044H7.73047V16.9565Z" fill="#9FB2BB"/>
<path d="M12.8164 16.9565H13.6642V17.8044H12.8164V16.9565Z" fill="#9FB2BB"/>
<path d="M10.2734 16.9565H11.1213V17.8044H10.2734V16.9565Z" fill="#9FB2BB"/>
<path fill-rule="evenodd" clip-rule="evenodd" d="M3 8.47826L6.81522 3.81522L9.99457 0H24.9783C28.292 0 30.9783 2.68629 30.9783 6V27.913C30.9783 31.2268 28.292 33.913 24.9783 33.913H9C5.68629 33.913 3 31.2268 3 27.913V8.47826ZM7.89475 4.70665L9.29457 3.02687V6.47826C9.29457 7.19623 8.71253 7.77826 7.99457 7.77826H5.38161L7.89475 4.70665ZM4.4 27.913V9.17826H7.99457C9.48573 9.17826 10.6946 7.96943 10.6946 6.47826V1.4H24.9783C27.5188 1.4 29.5783 3.45949 29.5783 6V27.913C29.5783 30.4536 27.5188 32.513 24.9783 32.513H9C6.45949 32.513 4.4 30.4536 4.4 27.913ZM17.4121 9.32608H27.5869V10.3436H17.4121V9.32608ZM19.957 11.8704H26.0619V12.8879H19.957V11.8704ZM26.0619 19.5008H19.957V20.5183H26.0619V19.5008ZM10.7823 21.0435C13.0394 21.0435 14.8692 19.2137 14.8692 16.9565C14.8692 14.6994 13.0394 12.8696 10.7823 12.8696C8.52511 12.8696 6.69531 14.6994 6.69531 16.9565C6.69531 19.2137 8.52511 21.0435 10.7823 21.0435ZM10.7823 22.0435C11.3486 22.0435 11.8934 21.9509 12.4022 21.7801V26.3472L11.1362 25.0812L10.7826 24.7277L10.4291 25.0812L9.16304 26.3472V21.7803C9.67167 21.951 10.2162 22.0435 10.7823 22.0435ZM15.7621 18C15.4689 19.4065 14.5948 20.5998 13.4022 21.3178V24H27V25H13.4022V27.5543V28.7615L12.5486 27.9079L10.7826 26.1419L9.0166 27.9079L8.16304 28.7615V27.5543V21.3182C6.68442 20.4284 5.69531 18.808 5.69531 16.9565C5.69531 14.1471 7.97282 11.8696 10.7823 11.8696C13.5917 11.8696 15.8692 14.1471 15.8692 16.9565L15.869 17H27V18H15.7621ZM27.061 27.1313H15.8691V28.1487H27.061V27.1313Z" fill="#9FB2BB"/>
</svg>