<svg viewBox="0 0 40 40" fill="none" xmlns="http://www.w3.org/2000/svg">
<g clip-path="url(#clip0)">
<path d="M35.8594 15.8984C35.8594 15.1398 35.6171 14.4202 35.159 13.8177C34.7647 13.2971 34.6332 12.6364 34.7983 12.0056C34.9911 11.2729 34.9396 10.5151 34.649 9.81445C34.3588 9.11377 33.8596 8.54126 33.2059 8.1601C32.6422 7.8302 32.2681 7.2699 32.179 6.62384C32.0767 5.87311 31.7392 5.19287 31.2027 4.65668C30.6665 4.12018 29.9863 3.78265 29.2365 3.68042C28.5895 3.59131 28.0292 3.21686 27.6996 2.65411C27.3178 1.99982 26.7456 1.50024 26.0449 1.21033C25.6244 1.03607 25.1816 0.947571 24.7293 0.947571C24.4345 0.947571 24.14 0.985718 23.8547 1.06079C23.6801 1.10657 23.4998 1.12976 23.3194 1.12976C22.8607 1.12976 22.4069 0.977173 22.0422 0.700684C21.4392 0.24231 20.7196 0 19.9609 0C19.2023 0 18.4827 0.242309 17.8802 0.700378C17.515 0.977173 17.0612 1.12976 16.6025 1.12976C16.4218 1.12976 16.2421 1.10657 16.0681 1.0611C15.7819 0.985718 15.4871 0.947571 15.1923 0.947571C14.74 0.947571 14.2975 1.03607 13.877 1.21033C13.176 1.50055 12.6038 1.99982 12.2226 2.6535C11.8927 3.21686 11.3324 3.59131 10.6863 3.68042C9.93561 3.78265 9.25537 4.12018 8.71918 4.65668C8.18268 5.19287 7.84515 5.87311 7.74292 6.62292C7.65381 7.2699 7.27936 7.8302 6.71661 8.15948C6.06232 8.54126 5.56305 9.11346 5.27283 9.81445C4.98261 10.5151 4.93103 11.2729 5.12329 12.0047C5.2887 12.6364 5.15717 13.2974 4.76318 13.8171C4.30481 14.4202 4.0625 15.1401 4.0625 15.8984C4.0625 16.6571 4.30481 17.3767 4.76288 17.9791C5.15717 18.4998 5.2887 19.1605 5.1236 19.7916C4.93073 20.5243 4.9823 21.2817 5.27252 21.9827C5.56305 22.6834 6.06232 23.2556 6.716 23.6371C7.27936 23.967 7.65381 24.527 7.74292 25.1733C7.84515 25.9238 8.18268 26.604 8.71918 27.1405C9.25537 27.677 9.93591 28.0145 10.6854 28.1165C11.3324 28.2056 11.8927 28.58 12.222 29.1428C12.6038 29.7974 13.176 30.2966 13.8766 30.5869C14.1394 30.6955 14.4107 30.7709 14.6875 30.8121V39.4141C14.6875 39.6359 14.8129 39.8389 15.0113 39.938C15.21 40.0375 15.4474 40.0159 15.625 39.8828L19.9609 36.6309L24.2969 39.8828C24.4 39.9603 24.5239 40 24.6484 40C24.7379 40 24.8276 39.9796 24.9103 39.938C25.1089 39.8389 25.2344 39.6359 25.2344 39.4141V30.8121C25.5112 30.7706 25.7822 30.6955 26.0449 30.5869C26.7456 30.2963 27.3178 29.7971 27.6993 29.1434C28.0292 28.58 28.5895 28.2056 29.2355 28.1165C29.9863 28.0142 30.6665 27.6767 31.2027 27.1402C31.7392 26.604 32.0767 25.9238 32.179 25.174C32.2681 24.527 32.6425 23.9667 33.2053 23.6371C33.8596 23.2553 34.3588 22.6831 34.649 21.9824C34.9393 21.2814 34.9908 20.524 34.7986 19.7922C34.6332 19.1605 34.7647 18.4995 35.1587 17.9797C35.6171 17.3767 35.8594 16.6571 35.8594 15.8984ZM20.3125 35.4297C20.1041 35.2734 19.8178 35.2734 19.6094 35.4297L15.8594 38.2422V30.7837C15.929 30.77 15.9985 30.7541 16.0672 30.7361C16.2418 30.6903 16.4221 30.6671 16.6025 30.6671C17.0612 30.6671 17.515 30.8197 17.8796 31.0962C18.4827 31.5546 19.2023 31.7969 19.9609 31.7969C20.7196 31.7969 21.4392 31.5546 22.0416 31.0965C22.4072 30.8197 22.861 30.6671 23.3194 30.6671C23.5001 30.6671 23.6801 30.6903 23.8538 30.7358C23.923 30.7541 23.9926 30.7697 24.0625 30.7837V38.2422L20.3125 35.4297ZM34.2252 17.2711C33.6124 18.0801 33.4079 19.1071 33.6649 20.0894C33.7921 20.5725 33.7579 21.0718 33.5666 21.5341C33.3752 21.9962 33.046 22.3734 32.6141 22.6254C31.7383 23.1381 31.1566 24.0088 31.0181 25.015C30.9506 25.5093 30.7281 25.9579 30.3741 26.3116C30.0208 26.6653 29.5721 26.8878 29.0765 26.9556C28.0713 27.0941 27.2006 27.6758 26.6876 28.5522C26.4362 28.9835 26.059 29.3124 25.5966 29.5041C25.3189 29.6191 25.0272 29.6774 24.7296 29.6774C24.5352 29.6774 24.3408 29.6524 24.1513 29.6024C23.8797 29.5312 23.5999 29.4952 23.3197 29.4952C22.6071 29.4952 21.9019 29.7324 21.3333 30.1633C20.9357 30.4654 20.4611 30.625 19.9609 30.625C19.4608 30.625 18.9862 30.4654 18.588 30.1627C18.02 29.7324 17.3151 29.4952 16.6025 29.4952C16.322 29.4952 16.0422 29.5312 15.7697 29.6024C15.2914 29.7281 14.7842 29.6942 14.3253 29.5038C13.8632 29.3124 13.4857 28.9835 13.2339 28.5516C12.7213 27.6758 11.8506 27.0941 10.8444 26.9553C10.3497 26.8881 9.90143 26.6653 9.54773 26.3116C9.19403 25.9579 8.97156 25.5096 8.90381 25.014C8.76526 24.0088 8.18359 23.1381 7.30713 22.6251C6.87592 22.3737 6.54694 21.9962 6.35529 21.5341C6.16394 21.0721 6.12976 20.5725 6.25702 20.0888C6.51398 19.1071 6.30951 18.0801 5.69611 17.2705C5.39398 16.8732 5.23438 16.3986 5.23438 15.8984C5.23438 15.3983 5.39398 14.9237 5.69672 14.5258C6.30951 13.7167 6.51398 12.6901 6.25702 11.7075C6.13007 11.2247 6.16394 10.7251 6.35529 10.2631C6.54694 9.80072 6.87592 9.42352 7.30774 9.17145C8.18359 8.65875 8.76526 7.78839 8.90411 6.78223C8.97156 6.28754 9.19403 5.83893 9.54773 5.48523C9.90143 5.13153 10.35 4.90906 10.8453 4.84131C11.8506 4.70306 12.7213 4.12109 13.2343 3.24463C13.486 2.81342 13.8632 2.48444 14.3253 2.29279C14.7842 2.10266 15.2905 2.06818 15.7706 2.19452C16.0422 2.26562 16.322 2.30164 16.6025 2.30164C17.3151 2.30164 18.0203 2.06451 18.5889 1.63361C18.9862 1.33148 19.4608 1.17188 19.9609 1.17188C20.4611 1.17188 20.9357 1.33148 21.3339 1.63422C21.9019 2.06451 22.6068 2.30164 23.3194 2.30164C23.5999 2.30164 23.8797 2.26562 24.1522 2.19452C24.6301 2.06879 25.1376 2.10266 25.5966 2.29309C26.0587 2.48444 26.4362 2.81342 26.6879 3.24524C27.2006 4.12109 28.0713 4.70276 29.0771 4.84161C29.5721 4.90906 30.0204 5.13153 30.3741 5.48523C30.7278 5.83893 30.9503 6.28754 31.0181 6.78284C31.1566 7.78809 31.7383 8.65875 32.6147 9.17175C33.046 9.42352 33.3749 9.80072 33.5666 10.2628C33.7579 10.7251 33.7918 11.2244 33.6646 11.7081C33.4079 12.6898 33.6121 13.7167 34.2258 14.5264C34.5276 14.9237 34.6875 15.3983 34.6875 15.8984C34.6875 16.3986 34.5279 16.8732 34.2252 17.2711Z" fill="#9FB2BB"/>
<path d="M30.0895 13.4152C29.5438 11.1887 28.2483 9.17084 26.442 7.73376C24.5798 6.25183 22.3383 5.46875 19.9594 5.46875C17.5806 5.46875 15.3391 6.25183 13.4769 7.73376C11.6706 9.17084 10.3751 11.1887 9.82944 13.4152C9.78641 13.5898 9.82639 13.7747 9.93747 13.9163C10.0483 14.0579 10.2182 14.1406 10.3983 14.1406H29.5206C29.7004 14.1406 29.8703 14.0579 29.9814 13.9163C30.0925 13.7747 30.1325 13.5898 30.0895 13.4152ZM11.1765 12.9688C12.4265 9.20746 15.9369 6.64062 19.9594 6.64062C23.982 6.64062 27.4924 9.20746 28.7424 12.9688H11.1765Z" fill="#9FB2BB"/>
<path d="M9.93747 17.8806C9.82639 18.0222 9.78641 18.2071 9.82944 18.3817C10.3751 20.6082 11.6706 22.626 13.4769 24.0631C15.3391 25.545 17.5806 26.3281 19.9594 26.3281C22.3383 26.3281 24.5798 25.545 26.442 24.0631C28.2483 22.626 29.5438 20.6082 30.0895 18.3817C30.1325 18.2071 30.0925 18.0222 29.9814 17.8806C29.8706 17.739 29.7007 17.6562 29.5206 17.6562H10.3983C10.2185 17.6562 10.0486 17.739 9.93747 17.8806ZM28.7424 18.8281C27.4924 22.5894 23.982 25.1562 19.9594 25.1562C15.9372 25.1562 12.4265 22.5894 11.1765 18.8281H28.7424Z" fill="#9FB2BB"/>
<rect x="16" y="15" width="2" height="2" fill="#9FB2BB"/>
<rect x="22" y="15" width="2" height="2" fill="#9FB2BB"/>
<rect x="19" y="15" width="2" height="2" fill="#9FB2BB"/>
<circle cx="20" cy="16" r="12.5" stroke="#9FB2BB"/>
</g>
<defs>
<clipPath id="clip0">
<rect width="40" height="40" fill="white"/>
</clipPath>
</defs>
</svg>